<?xml version="1.0" encoding="UTF-8" standalone="no"?>
<svg width="38px" height="48px" viewBox="0 0 38 48" version="1.1" xmlns="http://www.w3.org/2000/svg" xmlns:xlink="http://www.w3.org/1999/xlink" xmlns:sketch="http://www.bohemiancoding.com/sketch/ns">
    <!-- Generator: Sketch 3.4.4 (17249) - http://www.bohemiancoding.com/sketch -->
    <title>Fill 359</title>
    <desc>Created with Sketch.</desc>
    <defs>
        <linearGradient x1="50%" y1="0%" x2="50%" y2="100%" id="linearGradient-1">
            <stop stop-color="#FFFFFF" offset="0%"></stop>
            <stop stop-color="#FFFFFF" stop-opacity="0.5" offset="100%"></stop>
        </linearGradient>
    </defs>
    <g id="product-page" stroke="none" stroke-width="1" fill="none" fill-rule="evenodd" sketch:type="MSPage">
        <g id="Discover" sketch:type="MSArtboardGroup" transform="translate(-398.000000, -403.000000)" fill="url(#linearGradient-1)">
            <g id="Fill-359" sketch:type="MSLayerGroup" transform="translate(398.000000, 403.000000)">
                <path d="M31,36 L30,36 L30,26 L31,26 C33.757,26 36,28.243 36,31 C36,33.757 33.757,36 31,36 L31,36 Z M28,43 C28,44.654 26.654,46 25,46 L7,46 C5.346,46 4,44.654 4,43 L4,22 L5,22 L11,22 L11.02,22 L13,22 L21,22 L22.998,22 L22.999,22 L23,22 L26.999,22 L27,22 L27.001,22 L28,22 L28,43 Z M3.268,15.299 L5.683,13.488 L9.3,20 L5.618,20 L3.268,15.299 Z M4.21,12.093 L2.716,13.213 L2.342,10.972 L4.21,12.093 Z M14,2 L20,2 L20,4 L17,4 C16.448,4 16,4.448 16,5 C16,5.552 16.448,6 17,6 L20,6 L20,8 L19,8 C18.448,8 18,8.448 18,9 C18,9.552 18.448,10 19,10 L20,10 L20,12 L17,12 C16.448,12 16,12.448 16,13 C16,13.552 16.448,14 17,14 L20,14 L20,16 L19,16 C18.448,16 18,16.448 18,17 C18,17.552 18.448,18 19,18 L20,18 L20,20 L14,20 L14,2 Z M28.635,12.933 C28.737,12.973 28.839,12.999 28.941,13.031 L26.309,20 L24.701,20 L28.635,12.933 Z M27.978,8.08 C28.118,7.748 28.442,7.339 28.786,6.906 C29.546,5.945 30.58,4.642 30.465,2.942 C32.341,4.221 33.02,6.438 32.795,8.322 C32.631,9.692 31.9,11.29 30.378,11.29 C30.02,11.29 29.628,11.202 29.214,11.027 C28.579,10.76 28.128,10.343 27.91,9.821 C27.692,9.304 27.716,8.701 27.978,8.08 L27.978,8.08 Z M31,24 L30,24 L30,21 C30,20.448 29.552,20 29,20 L28.447,20 L31.006,13.225 C32.988,12.909 34.475,11.123 34.781,8.56 C35.172,5.281 33.529,1.252 28.998,0.156 C28.596,0.058 28.181,0.217 27.945,0.552 C27.709,0.888 27.702,1.334 27.927,1.677 C28.983,3.287 28.346,4.24 27.218,5.664 C26.788,6.207 26.381,6.72 26.135,7.303 C25.666,8.415 25.642,9.584 26.065,10.595 C26.264,11.069 26.565,11.497 26.938,11.869 L22.412,20 L22,20 L22,1 C22,0.448 21.552,0 21,0 L13,0 C12.448,0 12,0.448 12,1 L12,20 L11.589,20 L6.874,11.515 C6.859,11.487 6.836,11.465 6.819,11.439 C6.81,11.427 6.809,11.412 6.8,11.399 C6.791,11.389 6.778,11.383 6.769,11.372 C6.696,11.283 6.614,11.202 6.515,11.143 L6.505,11.137 C6.504,11.136 6.503,11.136 6.503,11.136 L1.515,8.143 C1.181,7.942 0.76,7.954 0.437,8.173 C0.115,8.393 -0.05,8.78 0.014,9.164 L1.014,15.164 C1.016,15.18 1.025,15.193 1.028,15.207 C1.035,15.24 1.048,15.271 1.059,15.303 C1.074,15.352 1.083,15.402 1.105,15.447 L3.382,20 L3,20 C2.448,20 2,20.448 2,21 L2,43 C2,45.757 4.243,48 7,48 L25,48 C27.757,48 30,45.757 30,43 L30,38 L31,38 C34.86,38 38,34.86 38,31 C38,27.14 34.86,24 31,24 L31,24 Z" sketch:type="MSShapeGroup"></path>
            </g>
        </g>
    </g>
</svg>