<?xml version="1.0" encoding="UTF-8" standalone="no"?>
<svg width="56px" height="56px" viewBox="0 0 56 56" version="1.1" xmlns="http://www.w3.org/2000/svg" xmlns:xlink="http://www.w3.org/1999/xlink" xmlns:sketch="http://www.bohemiancoding.com/sketch/ns">
    <!-- Generator: Sketch 3.3.1 (12002) - http://www.bohemiancoding.com/sketch -->
    <title>Shape</title>
    <desc>Created with Sketch.</desc>
    <defs></defs>
    <g id="Get-Started" stroke="none" stroke-width="1" fill="none" fill-rule="evenodd" sketch:type="MSPage">
        <g id="Desktop-HD-Copy-2" sketch:type="MSArtboardGroup" transform="translate(-460.000000, -169.000000)" fill="#15C577">
            <g id="Group" sketch:type="MSLayerGroup" transform="translate(460.000000, 169.000000)">
                <path d="M28,0 C12.5608,0 0,12.5608 0,28 C0,43.4392 12.5608,56 28,56 C43.4392,56 56,43.4392 56,28 C56,12.5608 43.4392,0 28,0 L28,0 Z M28.0000008,54.2000015 C13.5525718,54.2000015 1.8,42.4474298 1.8,28.0000008 C1.8,13.5535075 13.5525718,1.8 28.0000008,1.8 C42.4474298,1.8 54.2000015,13.5535075 54.2000015,28.0000008 C54.2000015,42.4474298 42.4474298,54.2000015 28.0000008,54.2000015 L28.0000008,54.2000015 Z" id="Shape" sketch:type="MSShapeGroup"></path>
                <path d="M43.96,28.9333333 C43.49548,28.9333333 43.12,29.3096533 43.12,29.7733333 C43.12,38.1674533 36.19588,45.2587333 28,45.2587333 C19.80412,45.2587333 12.88,38.1674533 12.88,29.7733333 C12.88,29.3096533 12.50452,28.9333333 12.04,28.9333333 C11.57548,28.9333333 11.2,29.3096533 11.2,29.7733333 C11.2,39.0780133 18.89356,46.9387333 28,46.9387333 C37.10644,46.9387333 44.8,39.0780133 44.8,29.7733333 C44.8,29.3096533 44.42452,28.9333333 43.96,28.9333333 L43.96,28.9333333 Z" id="Shape" sketch:type="MSShapeGroup"></path>
                <path d="M13.0666667,23.4145333 C13.5828,23.4145333 14,22.9964 14,22.4812 C14,20.3326667 16.3342667,18.6666667 18.3418667,18.6666667 C20.5044,18.6666667 22.4,20.4493333 22.4,22.4812 C22.4,22.9964 22.8172,23.4145333 23.3333333,23.4145333 C23.8494667,23.4145333 24.2666667,22.9964 24.2666667,22.4812 C24.2666667,19.4544 21.4984,16.8 18.3418667,16.8 C15.4112,16.8 12.1333333,19.2294667 12.1333333,22.4812 C12.1333333,22.9964 12.5505333,23.4145333 13.0666667,23.4145333 L13.0666667,23.4145333 Z" id="Shape-Copy-3" sketch:type="MSShapeGroup"></path>
                <path d="M32.6666667,23.4145333 C33.1828,23.4145333 33.6,22.9964 33.6,22.4812 C33.6,20.4493333 35.4956,18.6666667 37.6581333,18.6666667 C39.6657333,18.6666667 42,20.3326667 42,22.4812 C42,22.9964 42.4172,23.4145333 42.9333333,23.4145333 C43.4494667,23.4145333 43.8666667,22.9964 43.8666667,22.4812 C43.8666667,19.2294667 40.5888,16.8 37.6581333,16.8 C34.5016,16.8 31.7333333,19.4544 31.7333333,22.4812 C31.7333333,22.9964 32.1505333,23.4145333 32.6666667,23.4145333 L32.6666667,23.4145333 Z" id="Shape-Copy-2" sketch:type="MSShapeGroup"></path>
            </g>
        </g>
    </g>
</svg>