<svgviewBox="0 0 480 165" xmlns="http://www.w3.org/2000/svg"><g id="Page-1" stroke="none" stroke-width="1" fill="none" fill-rule="evenodd" sketch:type="MSPage"><g id="Portrait-2" sketch:type="MSArtboardGroup"><rect id="Rectangle-1" opacity="0.25" fill="#3B5998" sketch:type="MSShapeGroup" x="0" y="0" width="480" height="100"></rect><rect id="Rectangle-3" fill="#3B5998" sketch:type="MSShapeGroup" x="0" y="100" width="480" height="1"></rect><circle id="Oval-1" stroke="#3B5998" fill="#FFFFFF" sketch:type="MSShapeGroup" cx="240" cy="100" r="50"></circle><g id="Stroke-1847-+-Stroke-1848-+-Fill-1849" sketch:type="MSLayerGroup" transform="translate(240.000000, 109.000000) scale(-1, 1) translate(-240.000000, -109.000000) translate(211.000000, 83.000000)"><path d="M9,15.5 L9,15.5 C6.911,15.5 5,14.5 5,11.5 C5,9.411 6.911,8.5 9,8.5 L12,8.5 C9.911,8.5 8,7.589 8,5.5 C8,3.411 8.911,2.5 11,2.5 L28,2.5 C35.187,2.5 37.174,4.239 46,5.5 L46,26.5 C39.821,26.5 29,38.092 29,48.179 C29,52.166 23.48,53.65 21.435,46.367 C20.174,41.875 24,32.5 24,32.5 L4,32.5 C1.911,32.5 0,30.589 0,28.5 C0,26.411 1.286,23.5 4,23.5 L7.147,23.5 C4.433,23.5 2,21.589 2,19.5 C2,17.411 3.911,15.5 6,15.5 L9,15.5" id="Stroke-1847" stroke="#3B5998" stroke-linecap="round" stroke-linejoin="round" sketch:type="MSShapeGroup"></path><path d="M46,0.5 L58,0.5 L58,30.526 L46,30.5 L46,0.5 L46,0.5 Z" id="Stroke-1848" stroke="#3B5998" stroke-linecap="round" stroke-linejoin="round" sketch:type="MSShapeGroup"></path><path d="M50.4346,4.0483 C49.7386,4.0483 49.1736,4.6123 49.1736,5.3093 C49.1736,6.0063 49.7386,6.5693 50.4346,6.5693 C51.1306,6.5693 51.6956,6.0063 51.6956,5.3093 C51.6956,4.6123 51.1306,4.0483 50.4346,4.0483" id="Fill-1849" fill="#3B5998" sketch:type="MSShapeGroup"></path></g></g></g></svg>