<svg width="105px" height="98px" viewBox="0 0 105 98" version="1.1" xmlns="http://www.w3.org/2000/svg" xmlns:xlink="http://www.w3.org/1999/xlink" xmlns:sketch="http://www.bohemiancoding.com/sketch/ns">
    <g id="Final" stroke="none" stroke-width="1" fill="none" fill-rule="evenodd" sketch:type="MSPage">
        <g id="Landscape-7" sketch:type="MSArtboardGroup" transform="translate(-48.000000, -251.000000)">
            <rect id="Rectangle-31" fill="#FFFFFF" sketch:type="MSShapeGroup" x="0" y="200" width="200" height="200"></rect>
            <path d="M50.6181798,251.000019 L48,251.000021 L48,253.488908 L48,336.568391 C48,343.452937 53.8512959,349 61.142552,349 L95.146958,349 L104.000001,336.568393 C104.000001,336.568393 104.000001,349 113.242718,349 L153,349 L153,263.973995 C153,251 139.759931,251 139.759929,251 L109.090909,251 L98.9090909,261.888889 C98.9090909,261.888889 98.909089,251 88.7272727,251 L76,251 L76,321 L90,321 C90,321 97,321 97,314 L97,286 C97,272 111,272 111,272 L132,272 L132,349 L125,349 L125,279 L111,279 C109.03473,279 104,279.777778 104,286 L104,314 C104,328 90,328 90,328 L69,328 L69,251 L50.6181798,251.000019 Z" id="Path-24" fill="#5856D6" sketch:type="MSShapeGroup"></path>
        </g>
    </g>
</svg>