<?xml version="1.0" encoding="UTF-8" standalone="no"?>
<svg width="480px" height="165px" viewBox="0 0 480 165" version="1.1" xmlns="http://www.w3.org/2000/svg" xmlns:xlink="http://www.w3.org/1999/xlink" xmlns:sketch="http://www.bohemiancoding.com/sketch/ns">
    <!-- Generator: Sketch 3.2.2 (9983) - http://www.bohemiancoding.com/sketch -->
    <title>Rectangle 1</title>
    <desc>Created with Sketch.</desc>
    <defs></defs>
    <g id="Page-1" stroke="none" stroke-width="1" fill="none" fill-rule="evenodd" sketch:type="MSPage">
        <g id="Portrait" sketch:type="MSArtboardGroup">
            <rect id="Rectangle-1" opacity="0.25" fill="#3B5998" sketch:type="MSShapeGroup" x="0" y="0" width="480" height="100"></rect>
            <rect id="Rectangle-3" fill="#3B5998" sketch:type="MSShapeGroup" x="0" y="100" width="480" height="1"></rect>
            <g id="Group" sketch:type="MSLayerGroup" transform="translate(196.000000, 38.000000)" stroke-linejoin="round">
                <path d="M60,116 L0,116 L0,0 L56,0 L88,32 L88,82" id="Stroke-1978" stroke="#3B5998" stroke-linecap="round" fill="#FFFFFF" sketch:type="MSShapeGroup"></path>
                <path d="M56,0 L56,32 L88,32" id="Stroke-1979" stroke="#3B5998" sketch:type="MSShapeGroup"></path>
                <path d="M20,72 L20,96.174 L68,96.174" id="Stroke-1980" stroke="#3B5998" stroke-linecap="round" sketch:type="MSShapeGroup"></path>
                <path d="M36,72 L36,95.826" id="Stroke-1981" stroke="#3B5998" stroke-linecap="round" sketch:type="MSShapeGroup"></path>
                <path d="M52,52 L52,96" id="Stroke-1982" stroke="#3B5998" stroke-linecap="round" sketch:type="MSShapeGroup"></path>
                <path d="M68,52 L68,95.826" id="Stroke-1983" stroke="#3B5998" stroke-linecap="round" sketch:type="MSShapeGroup"></path>
                <path d="M36,80 L52,80" id="Stroke-1984" stroke="#3B5998" stroke-linecap="round" sketch:type="MSShapeGroup"></path>
                <path d="M68,52 L52,52" id="Stroke-1985" stroke="#3B5998" stroke-linecap="round" sketch:type="MSShapeGroup"></path>
                <path d="M20,72 L35.13,72" id="Stroke-1986" stroke="#3B5998" stroke-linecap="round" sketch:type="MSShapeGroup"></path>
                <path d="M78.826,120.222 L70,122.743 L72.522,113.917 L91.438,95 L97.743,101.305 L78.826,120.222 L78.826,120.222 Z" id="Stroke-2177" stroke="#584BDD" stroke-linecap="round" sketch:type="MSShapeGroup"></path>
                <path d="M87,100 L93.304,106.304" id="Stroke-2175" stroke="#584BDD" sketch:type="MSShapeGroup"></path>
                <path d="M73,114 L79,120" id="Stroke-2176" stroke="#584BDD" stroke-linecap="round" sketch:type="MSShapeGroup"></path>
            </g>
        </g>
    </g>
</svg>